<mxfile host="app.diagrams.net" modified="2023-08-20T15:58:19.771Z" agent="Mozilla/5.0 (X11; Linux x86_64) AppleWebKit/537.36 (KHTML, like Gecko) Chrome/107.0.0.0 Safari/537.36" etag="XX7MZbqOrKivgP2KB3oa" version="21.6.8" type="github">
  <diagram name="PÃ¡gina-1" id="PoFF8F3EbRDm4t548dB7">
    <mxGraphModel dx="1384" dy="810" grid="1" gridSize="10" guides="1" tooltips="1" connect="1" arrows="1" fold="1" page="1" pageScale="1" pageWidth="1169" pageHeight="827" math="0" shadow="0">
      <root>
        <mxCell id="0" />
        <mxCell id="1" parent="0" />
      </root>
    </mxGraphModel>
  </diagram>
</mxfile>
